<svg xmlns="http://www.w3.org/2000/svg" width="179.57mm" height="23.32mm" viewBox="0 0 509.03 66.12">
  <g>
    <g>
      <path d="M45.52,1.3V13.75a.13.13,0,0,1-.13.13H29.54a.13.13,0,0,0-.14.13V64.85a.14.14,0,0,1-.14.14h-13a.13.13,0,0,1-.13-.14V14a.13.13,0,0,0-.14-.13H.14A.13.13,0,0,1,0,13.75V1.3a.13.13,0,0,1,.14-.13H45.39A.13.13,0,0,1,45.52,1.3Z" fill="#e63b11" fill-rule="evenodd"/>
      <path d="M81.23,16.77a9.55,9.55,0,0,0-7-2.89H64.55a.13.13,0,0,0-.13.13V33a.13.13,0,0,0,.13.13l9.72,0a9.63,9.63,0,0,0,7-2.85,9.26,9.26,0,0,0,0-13.54ZM51.22,1.3a.13.13,0,0,1,.14-.13H74.27A22.53,22.53,0,0,1,90.56,7.7a21.24,21.24,0,0,1,6.8,15.84,20.8,20.8,0,0,1-6.8,15.75,22.65,22.65,0,0,1-16.29,6.53H64.55a.13.13,0,0,0-.13.14V64.85a.14.14,0,0,1-.14.14H51.36a.14.14,0,0,1-.14-.14Z" fill="#e63b11" fill-rule="evenodd"/>
      <path d="M155.83.13v64.8a.13.13,0,0,1-.13.13H142.77a.13.13,0,0,1-.13-.13v-35a.14.14,0,0,0-.23-.09L103.29,66.08a.14.14,0,0,1-.23-.1V1.14A.13.13,0,0,1,103.2,1h13a.13.13,0,0,1,.13.13v35a.14.14,0,0,0,.23.1L155.6,0A.14.14,0,0,1,155.83.13Z" fill="#e63b11" fill-rule="evenodd"/>
      <path d="M228.2,26.66a.14.14,0,0,0,.13-.18,19.55,19.55,0,0,0-4.7-7.06,19.32,19.32,0,0,0-14.09-5.7,19.69,19.69,0,0,0-14,5.61.14.14,0,0,1-.19,0l-9.22-9a.13.13,0,0,1,0-.19c2.74-2.56,8-6.19,11.87-7.39A36.82,36.82,0,0,1,209.58.65a32.55,32.55,0,0,1,23.5,9.55,31,31,0,0,1,9.77,22.92A30.77,30.77,0,0,1,233.08,56a34.17,34.17,0,0,1-47,.09.14.14,0,0,1,0-.19L195.28,47a.14.14,0,0,1,.19,0,20.42,20.42,0,0,0,28.16-.06,19,19,0,0,0,4.78-7.22.14.14,0,0,0-.13-.18H210.41a.13.13,0,0,1-.14-.13V26.8a.14.14,0,0,1,.14-.14Z" fill="#e63b11" fill-rule="evenodd"/>
      <path d="M281.78,65.42A32.81,32.81,0,0,1,258.28,56a30.73,30.73,0,0,1-9.77-22.88,30.93,30.93,0,0,1,9.77-22.92A32.51,32.51,0,0,1,281.78.65a36.75,36.75,0,0,1,11.59,2.14c3.86,1.2,9.13,4.84,11.88,7.39a.12.12,0,0,1,0,.19l-9.21,9a.14.14,0,0,1-.19,0,19.69,19.69,0,0,0-14-5.61,19.31,19.31,0,0,0-14.09,5.7,18.63,18.63,0,0,0-5.87,13.74,18.45,18.45,0,0,0,5.87,13.73,20.42,20.42,0,0,0,28.16.06.14.14,0,0,1,.19,0l9.22,8.95a.13.13,0,0,1,0,.19A32.75,32.75,0,0,1,281.78,65.42Z" fill="#e63b11" fill-rule="evenodd"/>
    </g>
    <g>
      <path d="M331.91,17.06a8.23,8.23,0,0,1-11.6,0,7.9,7.9,0,0,1-2.41-5.79,8,8,0,0,1,2.41-5.81,7.89,7.89,0,0,1,5.79-2.41,8.21,8.21,0,0,1,5.8,2.43L329.59,7.8a4.82,4.82,0,0,0-3.48-1.45,4.7,4.7,0,0,0-3.47,1.45,4.74,4.74,0,0,0-1.45,3.48,4.93,4.93,0,0,0,8.41,3.47Z" fill="#0b151d"/>
      <path d="M345,3.18V6.39h-4v13h-3.26V6.39h-4V3.18Z" fill="#0b151d"/>
      <path d="M347.38,3.18h5.68a5.48,5.48,0,0,1,4,1.65,5.48,5.48,0,0,1,1.67,4,5.35,5.35,0,0,1-1.67,4,5.54,5.54,0,0,1-4,1.66h-2.43v4.85h-3.25Zm8.11,5.66a2.34,2.34,0,0,0-.72-1.71,2.32,2.32,0,0,0-1.71-.74h-2.43v4.88h2.43a2.34,2.34,0,0,0,1.71-.72A2.37,2.37,0,0,0,355.49,8.84Z" fill="#0b151d"/>
      <path d="M368.77,3.05a7.92,7.92,0,0,1,5.8,2.41A7.92,7.92,0,0,1,377,11.27a7.86,7.86,0,0,1-2.41,5.79,8.22,8.22,0,0,1-11.59,0,7.86,7.86,0,0,1-2.41-5.79A7.94,7.94,0,0,1,363,5.46,7.89,7.89,0,0,1,368.77,3.05Zm0,3.27a4.72,4.72,0,0,0-3.48,1.45,4.77,4.77,0,0,0-1.44,3.48,4.92,4.92,0,0,0,8.39,3.48,4.71,4.71,0,0,0,1.45-3.48,4.74,4.74,0,0,0-1.45-3.48A4.74,4.74,0,0,0,368.77,6.32Z" fill="#0b151d"/>
      <path d="M392.39,2.83V19.36h-3.25v-9l-9.75,9.29V3.14h3.26v9Z" fill="#0b151d"/>
      <path d="M406,3.18V6.39h-4v13H398.8V6.39h-4V3.18Z" fill="#0b151d"/>
      <path d="M418.2,3.14V6.37h-6.49V9.63h4.87v3.24h-4.87v3.26h6.49v3.23h-9.74V3.14Z" fill="#0b151d"/>
      <path d="M434.64,19.28h-3.48l-3.85-8.62-3.84,8.62H420l7.29-16.1Z" fill="#0b151d"/>
      <path d="M437.07,3.18h3.25V8h2.43a5.53,5.53,0,0,1,4,1.65,5.38,5.38,0,0,1,1.67,4,5.46,5.46,0,0,1-1.67,4,5.45,5.45,0,0,1-4,1.66h-5.68Zm8.11,10.49a2.46,2.46,0,0,0-2.43-2.43h-2.43v4.87h2.43a2.31,2.31,0,0,0,1.71-.73A2.34,2.34,0,0,0,445.18,13.67Z" fill="#0b151d"/>
      <path d="M464.27,17.06a8.23,8.23,0,0,1-11.6,0,7.86,7.86,0,0,1-2.41-5.79,7.94,7.94,0,0,1,2.41-5.81,7.89,7.89,0,0,1,5.78-2.41,8.23,8.23,0,0,1,5.81,2.43L461.94,7.8a4.78,4.78,0,0,0-3.48-1.45A4.71,4.71,0,0,0,455,7.8a4.77,4.77,0,0,0-1.44,3.48,4.92,4.92,0,0,0,8.4,3.47Z" fill="#0b151d"/>
      <path d="M477.31,3.18V6.39h-4v13h-3.25V6.39h-4V3.18Z" fill="#0b151d"/>
      <path d="M488.74,7.6a3.89,3.89,0,0,1-.22,1.21,6.82,6.82,0,0,1-.45,1,7.16,7.16,0,0,1,.65.37,4.2,4.2,0,0,1,.59.46,4.92,4.92,0,0,1,1.47,3.58,4.91,4.91,0,0,1-1.47,3.59,4.78,4.78,0,0,1-3.57,1.51h-6V3.18h4.51a4.34,4.34,0,0,1,3.21,1.34A4.26,4.26,0,0,1,488.74,7.6Zm-3.13.13a1.35,1.35,0,0,0-.4-1,1.29,1.29,0,0,0-1-.42H483v3l1.22-.08a1.65,1.65,0,0,0,1-.47A1.35,1.35,0,0,0,485.61,7.73Zm.13,8.44a1.77,1.77,0,0,0,1.33-.57,1.87,1.87,0,0,0,.55-1.36,1.91,1.91,0,0,0-.57-1.37,1.94,1.94,0,0,0-1.31-.61l-1,0H483v3.92Z" fill="#0b151d"/>
      <path d="M500.82,3.05a7.89,7.89,0,0,1,5.79,2.41A7.93,7.93,0,0,1,509,11.27a7.87,7.87,0,0,1-2.42,5.79,8.22,8.22,0,0,1-11.59,0,7.9,7.9,0,0,1-2.41-5.79A8,8,0,0,1,495,5.46,7.9,7.9,0,0,1,500.82,3.05Zm0,3.27a4.72,4.72,0,0,0-3.48,1.45,4.74,4.74,0,0,0-1.45,3.48,4.93,4.93,0,0,0,9.85,0,4.75,4.75,0,0,0-1.46-3.48A4.72,4.72,0,0,0,500.82,6.32Z" fill="#0b151d"/>
    </g>
    <g>
      <path d="M331.91,38.87a8.2,8.2,0,1,1-11.6-11.6,7.9,7.9,0,0,1,5.79-2.42,8.26,8.26,0,0,1,5.8,2.44l-2.31,2.31a4.81,4.81,0,0,0-3.48-1.44,4.69,4.69,0,0,0-3.47,1.44,4.78,4.78,0,0,0-1.45,3.48A4.93,4.93,0,0,0,326.11,38a4.79,4.79,0,0,0,3.49-1.45Z" fill="#0b151d"/>
      <path d="M337.59,28.21V41.14h-3.25V25h11.83V41.14h-3.25V28.21Z" fill="#0b151d"/>
      <path d="M356.71,24.85a8.26,8.26,0,0,1,8.21,8.22,8.19,8.19,0,0,1-8.21,8.18,8.18,8.18,0,0,1-5.8-14A7.91,7.91,0,0,1,356.71,24.85Zm0,3.28a4.71,4.71,0,0,0-3.48,1.44,4.78,4.78,0,0,0-1.45,3.48,4.91,4.91,0,1,0,4.93-4.92Z" fill="#0b151d"/>
      <path d="M367.33,25H373a5.7,5.7,0,0,1,5.69,5.67,5.36,5.36,0,0,1-1.68,4,5.5,5.5,0,0,1-4,1.65h-2.42v4.85h-3.25Zm8.11,5.67A2.48,2.48,0,0,0,373,28.2h-2.42v4.87H373a2.46,2.46,0,0,0,2.44-2.43Z" fill="#0b151d"/>
      <path d="M391.73,25V28.2h-4V41.14H384.5V28.2h-4V25Z" fill="#0b151d"/>
      <path d="M407.15,24.64V41.16H403.9v-9l-9.74,9.29V24.94h3.25v9Z" fill="#0b151d"/>
      <path d="M419.19,29.4a4,4,0,0,1-.23,1.22,5.53,5.53,0,0,1-.45,1,7.3,7.3,0,0,1,.66.37,5.2,5.2,0,0,1,.59.45,5.12,5.12,0,0,1,0,7.18,4.84,4.84,0,0,1-3.57,1.5h-6V25h4.51a4.35,4.35,0,0,1,3.21,1.35A4.2,4.2,0,0,1,419.19,29.4Zm-3.13.13a1.41,1.41,0,0,0-.4-1,1.32,1.32,0,0,0-1-.41h-1.27v3l1.21-.08a1.73,1.73,0,0,0,1-.47A1.39,1.39,0,0,0,416.06,29.53Zm.13,8.45a1.76,1.76,0,0,0,1.33-.58,2,2,0,0,0,0-2.72,1.92,1.92,0,0,0-1.31-.61c-.29,0-.62,0-1,0h-1.77V38Z" fill="#0b151d"/>
      <path d="M426.9,25v6.47h5.4V25h3.24V41.14H432.3V34.67h-5.4v6.47h-3.24V25Z" fill="#0b151d"/>
      <path d="M438.57,25h3.25v4.85h2.43a5.52,5.52,0,0,1,4,1.66,5.32,5.32,0,0,1,1.67,4,5.67,5.67,0,0,1-5.68,5.66h-5.68Zm8.12,10.5A2.48,2.48,0,0,0,444.25,33h-2.43v4.88h2.43a2.51,2.51,0,0,0,2.44-2.45ZM451,41.14V25h3.25V41.14Z" fill="#0b151d"/>
      <path d="M460,25l2.75,4.8,2.77-4.8h3.73l-4.63,8.07,4.63,8.09h-3.73l-2.77-4.82L460,41.14h-3.73l4.61-8.08L456.27,25Z" fill="#0b151d"/>
    </g>
    <g>
      <path d="M331.91,60.67a8.21,8.21,0,0,1-14-5.79,8,8,0,0,1,2.41-5.81,7.89,7.89,0,0,1,5.79-2.41,8.25,8.25,0,0,1,5.8,2.43l-2.31,2.32A4.81,4.81,0,0,0,326.11,50a4.69,4.69,0,0,0-3.47,1.44,4.78,4.78,0,0,0-1.45,3.48,4.92,4.92,0,0,0,4.92,4.91,4.78,4.78,0,0,0,3.49-1.44Z" fill="#0b151d"/>
      <path d="M341.94,46.66a8.23,8.23,0,0,1,8.21,8.22,7.83,7.83,0,0,1-2.41,5.79,8.2,8.2,0,1,1-11.59-11.6A7.89,7.89,0,0,1,341.94,46.66Zm0,3.28a4.71,4.71,0,0,0-3.48,1.44A4.81,4.81,0,0,0,337,54.86a4.91,4.91,0,1,0,4.92-4.92Z" fill="#0b151d"/>
      <path d="M360.16,46.66a8.2,8.2,0,0,1,5.8,14,8.21,8.21,0,0,1-14-5.79,8,8,0,0,1,2.41-5.81A7.89,7.89,0,0,1,360.16,46.66Zm0,3.28a4.67,4.67,0,0,0-3.47,1.44,4.78,4.78,0,0,0-1.45,3.48,4.92,4.92,0,0,0,4.92,4.91,4.78,4.78,0,0,0,3.47-1.43,4.92,4.92,0,0,0-3.47-8.4Z" fill="#0b151d"/>
      <path d="M370.79,46.79h5.67a5.68,5.68,0,0,1,5.69,5.66,5.32,5.32,0,0,1-1.68,4,5.47,5.47,0,0,1-4,1.66H374V63h-3.24Zm8.11,5.66A2.48,2.48,0,0,0,376.46,50H374v4.87h2.43a2.46,2.46,0,0,0,2.44-2.44Z" fill="#0b151d"/>
      <path d="M387.71,46.79l2.75,4.8,2.77-4.8H397L387.71,63H384l4.61-8.08L384,46.79Z" fill="#0b151d"/>
      <path d="M407.77,53.89v-7.1H411v7.1l4.11-7.1h3.75L414.12,55l5.55,8h-3.95L411,56.21V63h-3.27V56.21L403.09,63h-3.95l5.55-8-4.78-8.21h3.75Z" fill="#0b151d"/>
      <path d="M431.85,46.75V50h-6.5v3.26h4.87v3.23h-4.87v3.26h6.5V63H422.1V46.75Z" fill="#0b151d"/>
      <path d="M437.52,46.79v6.47h5.4V46.79h3.24V63h-3.24V56.47h-5.4V63h-3.24V46.79Z" fill="#0b151d"/>
      <path d="M462.19,46.45V63h-3.25V54l-9.75,9.28V46.75h3.26v9Z" fill="#0b151d"/>
      <path d="M478.21,46.45V63H475V54l-9.75,9.28V46.75h3.26v9ZM472,44.76a1.32,1.32,0,0,0,1-.42,1.35,1.35,0,0,0,.42-1h1.51A3,3,0,0,1,472,46.27a2.92,2.92,0,0,1-2.91-2.92h1.5A1.43,1.43,0,0,0,472,44.76Z" fill="#0b151d"/>
    </g>
  </g>
</svg>
